<?xml version="1.0" encoding="UTF-8" standalone="no"?>
<svg
   xmlns:osb="http://www.openswatchbook.org/uri/2009/osb"
   xmlns:dc="http://purl.org/dc/elements/1.1/"
   xmlns:cc="http://creativecommons.org/ns#"
   xmlns:rdf="http://www.w3.org/1999/02/22-rdf-syntax-ns#"
   xmlns:svg="http://www.w3.org/2000/svg"
   xmlns="http://www.w3.org/2000/svg"
   xmlns:sodipodi="http://sodipodi.sourceforge.net/DTD/sodipodi-0.dtd"
   xmlns:inkscape="http://www.inkscape.org/namespaces/inkscape"
   width="3.25in"
   height="5.25in"
   viewBox="0 0 292.50001 472.50001"
   id="svg4516"
   version="1.1"
   inkscape:version="1.0.1 (3bc2e813f5, 2020-09-07)"
   sodipodi:docname="small-cardstock[cut].svg">
  <defs
     id="defs4518">
    <linearGradient
       id="linearGradient2200"
       osb:paint="solid">
      <stop
         style="stop-color:#565355;stop-opacity:1;"
         offset="0"
         id="stop2198" />
    </linearGradient>
  </defs>
  <sodipodi:namedview
     id="base"
     pagecolor="#ffffff"
     bordercolor="#666666"
     borderopacity="1.0"
     inkscape:pageopacity="0.0"
     inkscape:pageshadow="2"
     inkscape:zoom="1"
     inkscape:cx="51.016392"
     inkscape:cy="285.93735"
     inkscape:document-units="in"
     inkscape:current-layer="layer1"
     showgrid="false"
     units="in"
     inkscape:window-width="1713"
     inkscape:window-height="1008"
     inkscape:window-x="0"
     inkscape:window-y="0"
     inkscape:window-maximized="0"
     inkscape:document-rotation="0"
     inkscape:snap-global="false" />
  <metadata
     id="metadata4521">
    <rdf:RDF>
      <cc:Work
         rdf:about="">
        <dc:format>image/svg+xml</dc:format>
        <dc:type
           rdf:resource="http://purl.org/dc/dcmitype/StillImage" />
        <dc:title />
      </cc:Work>
    </rdf:RDF>
  </metadata>
  <g
     inkscape:label="Layer 1"
     inkscape:groupmode="layer"
     id="layer1"
     transform="translate(0,-579.86215)">
    <rect
       style="fill:none;fill-opacity:0.97647059;stroke:#00aeef;stroke-width:1;stroke-miterlimit:4;stroke-dasharray:3,1;stroke-dashoffset:0;stroke-opacity:1"
       id="rect5064"
       width="270"
       height="450"
       x="11.25"
       y="591.11212" />
    <path
       id="path24-7-9-6-7"
       style="fill:none;fill-rule:evenodd;stroke:#ff0000;stroke-width:1.8;stroke-miterlimit:4;stroke-dasharray:none;stroke-opacity:1"
       d="m 215.601,602.45064 23.30549,-0.0871 34.3407,34.09421 0.0872,23.32578 m 0,1.8 0.0871,23.26501 -34.09422,34.3407 -23.27626,0.0872 m -1.8,0 -23.31453,0.0871 -34.34068,-34.09419 -0.0872,-23.3258 m 0,-1.8 -0.0872,-23.26498 34.12182,-34.34071 23.2577,-0.0872"
       sodipodi:nodetypes="cccccccccccccccc" />
    <path
       id="path24-7-9-6"
       style="fill:none;fill-rule:evenodd;stroke:#ff0000;stroke-width:1.8;stroke-miterlimit:4;stroke-dasharray:none;stroke-opacity:1"
       d="m 78.260895,748.70064 23.305485,-0.0871 34.3407,34.09421 0.0872,23.32578 m 0,1.8 0.0871,23.26501 -34.09422,34.3407 -23.276263,0.0872 m -1.8,0 -23.314522,0.0871 -34.340683,-34.09419 -0.08715,-23.3258 m 0,-1.8 -0.08715,-23.26498 34.12182,-34.34071 23.257698,-0.0872"
       sodipodi:nodetypes="cccccccccccccccc" />
    <path
       id="path24-7-9-6-79"
       style="fill:none;fill-rule:evenodd;stroke:#ff0000;stroke-width:1.8;stroke-miterlimit:4;stroke-dasharray:none;stroke-opacity:1"
       d="m 215.6009,748.70064 23.30548,-0.0871 34.3407,34.09421 0.0872,23.32578 m 0,1.8 0.0871,23.26501 -34.09422,34.3407 -23.27626,0.0872 m -1.8,0 -23.31452,0.0871 -34.34069,-34.09419 -0.0872,-23.3258 m 0,-1.8 -0.0871,-23.26498 34.12182,-34.34071 23.2577,-0.0872"
       sodipodi:nodetypes="cccccccccccccccc" />
    <path
       id="path24-7-9-6-6"
       style="fill:none;fill-rule:evenodd;stroke:#ff0000;stroke-width:1.8;stroke-miterlimit:4;stroke-dasharray:none;stroke-opacity:1"
       d="m 215.6909,894.95065 23.30549,-0.0871 34.34069,34.09421 0.0872,23.32578 m 0,1.8 0.0871,23.26501 -34.09421,34.34075 -23.27627,0.087 m -1.8,0 -23.31452,0.087 -34.34068,-34.09424 -0.0871,-23.3258 m 0,-1.8 -0.0872,-23.26498 34.12182,-34.34071 23.25769,-0.0872"
       sodipodi:nodetypes="cccccccccccccccc" />
    <path
       id="path24-7-9-6-9"
       style="fill:none;fill-rule:evenodd;stroke:#ff0000;stroke-width:1.8;stroke-miterlimit:4;stroke-dasharray:none;stroke-opacity:1"
       d="m 78.260896,894.95065 23.305484,-0.0871 34.3407,34.09421 0.0872,23.32578 m 0,1.8 0.0871,23.26501 -34.09422,34.34075 -23.276262,0.087 m -1.8,0 -23.314522,0.087 -34.340684,-34.09424 -0.08715,-23.3258 m 0,-1.8 -0.08715,-23.26498 34.121821,-34.34071 23.257698,-0.0872"
       sodipodi:nodetypes="cccccccccccccccc" />
    <path
       id="path24-7-9-6-1"
       style="fill:none;fill-rule:evenodd;stroke:#ff0000;stroke-width:1.8;stroke-miterlimit:4;stroke-dasharray:none;stroke-opacity:1"
       d="m 78.260895,602.45064 23.305495,-0.0871 34.34069,34.09421 0.0872,23.32578 m 0,1.8 0.0871,23.26501 -34.09421,34.3407 -23.276273,0.0872 m -1.8,0 -23.314522,0.0871 -34.340683,-34.09419 -0.08715,-23.3258 m 0,-1.8 -0.08715,-23.26498 34.12182,-34.34071 23.257698,-0.0872"
       sodipodi:nodetypes="cccccccccccccccc" />
  </g>
</svg>
