<?xml version="1.0" encoding="UTF-8" standalone="no"?>
<svg
   xmlns:dc="http://purl.org/dc/elements/1.1/"
   xmlns:cc="http://creativecommons.org/ns#"
   xmlns:rdf="http://www.w3.org/1999/02/22-rdf-syntax-ns#"
   xmlns:svg="http://www.w3.org/2000/svg"
   xmlns="http://www.w3.org/2000/svg"
   xmlns:sodipodi="http://sodipodi.sourceforge.net/DTD/sodipodi-0.dtd"
   xmlns:inkscape="http://www.inkscape.org/namespaces/inkscape"
   width="8in"
   height="4in"
   viewBox="0 0 720 360"
   version="1.1"
   id="svg1033"
   sodipodi:docname="characters-acrylic-3mm[cut].svg"
   inkscape:version="1.0.1 (3bc2e813f5, 2020-09-07)"
   inkscape:export-filename="C:\Users\Logan\arena-boardgame-art\characters\characters-acrylic-3mm[cut].png"
   inkscape:export-xdpi="300"
   inkscape:export-ydpi="300">
  <defs
     id="defs1027">
    <inkscape:path-effect
       effect="bspline"
       id="path-effect447"
       is_visible="true"
       lpeversion="1"
       weight="33.333333"
       steps="2"
       helper_size="0"
       apply_no_weight="true"
       apply_with_weight="true"
       only_selected="false" />
    <inkscape:path-effect
       effect="bspline"
       id="path-effect443"
       is_visible="true"
       lpeversion="1"
       weight="33.333333"
       steps="2"
       helper_size="0"
       apply_no_weight="true"
       apply_with_weight="true"
       only_selected="false" />
    <inkscape:path-effect
       effect="bspline"
       id="path-effect439"
       is_visible="true"
       lpeversion="1"
       weight="33.333333"
       steps="2"
       helper_size="0"
       apply_no_weight="true"
       apply_with_weight="true"
       only_selected="false" />
  </defs>
  <sodipodi:namedview
     id="base"
     pagecolor="#ffffff"
     bordercolor="#666666"
     borderopacity="1.0"
     inkscape:pageopacity="0.0"
     inkscape:pageshadow="2"
     inkscape:zoom="1"
     inkscape:cx="490.74406"
     inkscape:cy="242.29345"
     inkscape:document-units="in"
     inkscape:current-layer="layer1"
     inkscape:document-rotation="0"
     showgrid="false"
     units="in"
     inkscape:window-width="1920"
     inkscape:window-height="1017"
     inkscape:window-x="-8"
     inkscape:window-y="-8"
     inkscape:window-maximized="1"
     objecttolerance="1"
     gridtolerance="1"
     guidetolerance="1"
     inkscape:object-paths="true"
     inkscape:snap-intersection-paths="true"
     inkscape:snap-others="false"
     scale-x="90" />
  <metadata
     id="metadata1030">
    <rdf:RDF>
      <cc:Work
         rdf:about="">
        <dc:format>image/svg+xml</dc:format>
        <dc:type
           rdf:resource="http://purl.org/dc/dcmitype/StillImage" />
        <dc:title></dc:title>
      </cc:Work>
    </rdf:RDF>
  </metadata>
  <g
     inkscape:label="Layer 1"
     inkscape:groupmode="layer"
     id="layer1">
    <path
       id="rect1282-8-5-5"
       style="fill:none;fill-rule:nonzero;stroke:#ff0000;stroke-width:0.899358;stroke-miterlimit:4;stroke-dasharray:none;stroke-opacity:1"
       d="m 565.79549,126.21774 c 15.44823,-3.13981 23.65053,7.34451 23.65053,7.34451 0,0 4.3451,2.65732 -5.06871,13.52589 -9.41375,10.86857 -10.76116,47.84945 -10.76116,47.84945 h 26.56543 v 8.68109 h 24.32429 m 0.89909,0 H 649.676 v -8.68109 h 26.56544 c 0,0 0.34271,-0.75307 2.51514,-32.6342 0.53665,-7.87558 0.6609,-16.8599 0.33633,-26.90946 m 0,-0.89963 C 678.1036,103.86234 672.94444,67.871303 662.58465,51.68575 653.98554,38.250995 634.80496,35.38258 620.81962,35.238705 m -0.89909,0 c -8.39121,-0.08633 -14.30097,0.809048 -15.02511,0.990189 -1.93101,0.483048 -4.82799,1.207581 -7.24179,11.5931 -2.41377,10.385519 -8.44905,14.732059 -8.44905,14.732059 0,0 -5.06863,4.105903 -16.4134,0 -11.34477,-4.105904 -20.0335,-2.173561 -26.30934,0.483199 -6.27589,2.656762 -13.03576,8.937529 -15.93231,21.255237 -2.89655,12.317709 -1.44791,20.769411 1.20727,29.947321 2.65516,9.17789 17.69138,15.29766 33.13961,12.15785"
       sodipodi:nodetypes="ccsccccccccsccsccsscssssc" />
    <path
       id="rect1282-8-5-0"
       style="fill:none;fill-rule:nonzero;stroke:#ff0000;stroke-width:0.911025;stroke-miterlimit:4;stroke-dasharray:none;stroke-opacity:1"
       d="m 216.67998,123.69878 c -0.0153,-5.8639 -7.45535,-10.57706 -17.99623,-17.04922 -11.38293,-6.989188 -18.62672,-38.051866 -18.62672,-38.051866 0,0 -2.32815,-18.897201 -18.10905,-28.733831 -5.91783,-3.688735 -13.93612,-4.828541 -22.40967,-4.758771 m -0.89909,0 c -14.12256,0.116284 -27.81747,3.593651 -30.24282,4.240798 -3.88055,1.035432 -6.2083,3.883978 -6.2083,22.521801 0,18.637828 -2.586477,22.001998 -2.586477,22.001998 0,0 -12.93554,17.343871 -43.203812,19.155881 -30.268273,1.81202 -29.491875,6.21359 -30.785391,7.50788 -0.676294,0.6767 -0.857563,1.91839 -0.765648,4.16906 m 0,0.89962 c 0.08388,2.05407 0.395315,4.11999 0.765648,6.83741 0.77611,5.69488 30.008205,11.64983 34.147456,11.64983 4.139251,0 29.493427,1.81065 32.080462,4.65811 2.587028,2.84744 3.621007,10.35578 3.879728,13.97981 0.258704,3.62402 -5.949834,19.93057 -8.536865,24.59003 -2.58703,4.65945 -2.173086,18.12178 -2.173086,18.12178 l 26.565435,0.0787 v 8.90806 h 24.2765 m 0.89909,0 h 24.31883 v -8.7598 l 26.56543,0.0787 c 4.99082,-22.47371 1.21877,-34.99313 0.44266,-39.91145 -0.77611,-4.91831 1.29194,-12.6842 2.32675,-15.01393 1.03481,-2.32972 15.26438,-6.21203 16.55789,-6.21203 1.29351,0 8.27867,-2.59033 9.57219,-9.0618 0.0957,-0.47873 0.14183,-0.47869 0.14061,-0.94713"
       sodipodi:nodetypes="cscsccsscssccsssssccccccccssssc" />
    <path
       id="rect1282-8-5"
       style="fill:none;fill-rule:nonzero;stroke:#ff0000;stroke-width:0.899358;stroke-miterlimit:4;stroke-dasharray:none;stroke-opacity:1"
       d="m 455.83714,38.093438 c -8.39683,0.03427 -13.88661,2.939985 -13.88661,2.939985 0,0 -6.64958,3.88111 -9.97462,3.603854 -3.32499,-0.277254 -7.75877,-2.495375 -9.69839,-7.485913 -1.93959,-4.990535 -6.6498,-10.535415 -11.63736,-12.198929 -1.24689,-0.415878 -2.42324,-0.588986 -3.48828,-0.614979 -3.19514,-0.07798 -5.37784,1.16956 -5.37784,1.16956 0,0 -9.14371,3.604791 -12.74584,30.498235 -2.52843,18.877224 0.0816,40.197415 2.16459,53.209519 m 0.18563,0.89963 c 0.88452,5.52559 1.64052,9.0018 1.80572,10.48935 0.55417,4.99053 9.69821,16.08145 14.96282,19.40846 5.26465,3.32703 5.81868,9.42603 5.81868,9.42603 0,0 2.21594,6.37812 -5.54247,16.3592 -7.75838,9.98107 -6.70218,30.78376 -6.70218,30.78376 h 26.56726 v 8.6811 h 24.31218 m 0.89909,0 h 24.28315 v -8.6811 h 26.56543 c 3.65423,-8.86287 -0.8835,-33.55667 -0.8835,-33.55667 0,0 -6.09699,-24.39858 -1.38653,-36.3204 1.50136,-3.79985 1.90501,-9.20494 1.75815,-15.42021 m 0,-0.89963 c -0.31389,-13.284882 -3.14285,-27.762863 -3.14285,-27.762863 0,0 -9.69703,-29.944089 -26.32214,-39.647889 -6.4543,-3.767267 -12.30648,-4.901849 -17.635,-4.8801"
       sodipodi:nodetypes="ccsssscsccsscscccccccccscccsc" />
    <g
       id="Layer_3"
       transform="scale(1.2487289,1.2494795)"
       style="clip-rule:evenodd;fill-rule:evenodd">
      <path
         d="M 546.946,288 H 576 v -29.055 h -4.5 -9.885 c -8.088,0 -14.668,6.58 -14.668,14.67 V 288 Z"
         style="fill:#ed1d2e;fill-rule:nonzero"
         id="path607" />
      <path
         d="M 0,258.945 V 288 h 29.055 v -4.501 -9.886 c 0,-8.088 -6.58,-14.668 -14.67,-14.668 H 5.5 Z"
         style="fill:#ed1d2e;fill-rule:nonzero"
         id="path609" />
      <path
         d="M 29.055,0 H 0 v 29.055 h 14.387 c 8.088,0 14.668,-6.58 14.668,-14.67 V 5.5 Z"
         style="fill:#ed1d2e;fill-rule:nonzero"
         id="path611" />
      <path
         d="M 576,29.054 V 0 h -29.055 v 14.386 c 0,8.088 6.58,14.668 14.67,14.668 z"
         style="fill:#ed1d2e;fill-rule:nonzero"
         id="path613" />
      <path
         d="m 566.999,1 c 4.411,0 8,3.589 8,8 L 574.997,29.055 575,258.945 V 287 H 546.946 29.054 9 c -4.411,0 -8,-3.589 -8,-8 V 258.945 29.055 9 C 1,4.589 4.589,1 9,1 h 557.999 m 0,-1 H 546.943 29.054 9 C 4.029,0 0,4.029 0,9 v 270 c 0,4.971 4.029,9 9,9 H 576 V 258.945 L 575.997,29.054 575.999,9 c 0,-4.971 -4.029,-9 -9,-9 z"
         style="fill:#ed1f24;fill-rule:nonzero"
         id="path615" />
      <g
         id="g649">
        <path
           d="m 563.997,249.945 h 3 v -3"
           style="fill:none;stroke:#2fa3dc;stroke-width:1px"
           id="path617" />
        <path
           d="M 566.997,241.062 V 43.995"
           style="fill:none;stroke:#2fa3dc;stroke-width:1px;stroke-dasharray:5.88, 5.88"
           id="path619" />
        <path
           d="m 566.997,41.054 v -3 h -3"
           style="fill:none;stroke:#2fa3dc;stroke-width:1px"
           id="path621" />
        <path
           d="M 558.019,37.781 C 546.864,36.073 538.248,26.551 537.954,14.996"
           style="fill:none;stroke:#2fa3dc;stroke-width:1px;stroke-dasharray:5.99, 5.99"
           id="path623" />
        <path
           d="M 537.945,12 V 9 h -3"
           style="fill:none;stroke:#2fa3dc;stroke-width:1px"
           id="path625" />
        <path
           d="M 528.994,9 H 44.03"
           style="fill:none;stroke:#2fa3dc;stroke-width:1px;stroke-dasharray:5.95, 5.95"
           id="path627" />
        <path
           d="m 41.055,9 h -3 v 3"
           style="fill:none;stroke:#2fa3dc;stroke-width:1px"
           id="path629" />
        <path
           d="M 37.782,17.979 C 36.075,29.135 26.552,37.753 14.996,38.046"
           style="fill:none;stroke:#2fa3dc;stroke-width:1px;stroke-dasharray:5.99, 5.99"
           id="path631" />
        <path
           d="M 12,38.055 H 9 v 3"
           style="fill:none;stroke:#2fa3dc;stroke-width:1px"
           id="path633" />
        <path
           d="M 9,46.938 V 244.004"
           style="fill:none;stroke:#2fa3dc;stroke-width:1px;stroke-dasharray:5.88, 5.88"
           id="path635" />
        <path
           d="m 9,246.945 v 3 h 3"
           style="fill:none;stroke:#2fa3dc;stroke-width:1px"
           id="path637" />
        <path
           d="m 17.979,250.218 c 11.156,1.707 19.774,11.23 20.067,22.786"
           style="fill:none;stroke:#2fa3dc;stroke-width:1px;stroke-dasharray:5.99, 5.99"
           id="path639" />
        <path
           d="m 38.055,276 v 3 h 3"
           style="fill:none;stroke:#2fa3dc;stroke-width:1px"
           id="path641" />
        <path
           d="M 47.005,279 H 531.971"
           style="fill:none;stroke:#2fa3dc;stroke-width:1px;stroke-dasharray:5.95, 5.95"
           id="path643" />
        <path
           d="m 534.946,279 h 3 v -3"
           style="fill:none;stroke:#2fa3dc;stroke-width:1px"
           id="path645" />
        <path
           d="m 538.219,270.021 c 1.706,-11.156 11.228,-19.773 22.782,-20.068"
           style="fill:none;stroke:#2fa3dc;stroke-width:1px;stroke-dasharray:5.99, 5.99"
           id="path647" />
      </g>
    </g>
    <g
       id="Layer_4"
       transform="scale(1.2487289,1.2494795)"
       style="clip-rule:evenodd;fill-rule:evenodd">
      <g
         id="g658">
        <path
           d="m 0,279 v 9 h 9 c -4.971,0 -9,-4.029 -9,-9 z"
           style="fill:#808080;fill-rule:nonzero"
           id="path652" />
        <path
           d="M 9,0 H 0 V 9 C 0,4.029 4.029,0 9,0 Z"
           style="fill:#808080;fill-rule:nonzero"
           id="path654" />
        <path
           d="m 566.999,0 c 4.971,0 9,4.029 9,9 L 575.997,29.055 576,258.945 V 0 Z"
           style="fill:#808080;fill-rule:nonzero"
           id="path656" />
      </g>
      <path
         d="m 14.387,279.283 c -3.126,0 -5.67,-2.541 -5.67,-5.668 0,-3.127 2.543,-5.67 5.67,-5.67 3.125,0 5.668,2.543 5.668,5.67 0,3.127 -2.543,5.668 -5.668,5.668 z"
         style="fill:#808080;fill-rule:nonzero;stroke:#ec2130;stroke-width:1px;stroke-miterlimit:10"
         id="path660" />
      <path
         d="m 14.387,20.056 c -3.126,0 -5.67,-2.543 -5.67,-5.669 0,-3.126 2.544,-5.669 5.67,-5.669 3.125,0 5.668,2.543 5.668,5.669 0,3.126 -2.543,5.669 -5.668,5.669 z"
         style="fill:#808080;fill-rule:nonzero;stroke:#ec2130;stroke-width:1px;stroke-miterlimit:10"
         id="path662" />
      <path
         d="m 561.616,279.283 c -3.127,0 -5.67,-2.541 -5.67,-5.668 0,-3.127 2.543,-5.67 5.67,-5.67 3.126,0 5.667,2.543 5.667,5.67 0,3.127 -2.541,5.668 -5.667,5.668 z"
         style="fill:#808080;fill-rule:nonzero;stroke:#ec2130;stroke-width:1px;stroke-miterlimit:10"
         id="path664" />
      <path
         d="m 561.616,20.056 c -3.127,0 -5.67,-2.543 -5.67,-5.669 0,-3.126 2.543,-5.669 5.67,-5.669 3.126,0 5.667,2.543 5.667,5.669 0,3.126 -2.541,5.669 -5.667,5.669 z"
         style="fill:#808080;fill-rule:nonzero;stroke:#ec2130;stroke-width:1px;stroke-miterlimit:10"
         id="path666" />
    </g>
    <text
       xml:space="preserve"
       style="font-style:normal;font-weight:normal;font-size:10.5833px;line-height:1.25;font-family:sans-serif;fill:#000000;fill-opacity:1;stroke:none;stroke-width:0.264583"
       x="24.11183"
       y="29.995117"
       id="text529"><tspan
         sodipodi:role="line"
         id="tspan527"
         x="24.11183"
         y="29.995117"
         style="stroke-width:0.264583" /></text>
    <path
       style="fill:#003380;fill-rule:evenodd;stroke:none;stroke-width:0.127;stroke-opacity:1"
       id="path1419"
       sodipodi:type="arc"
       sodipodi:cx="52.878769"
       sodipodi:cy="16.177691"
       sodipodi:rx="3.7599551e-15"
       sodipodi:ry="0.32866639"
       sodipodi:start="0"
       sodipodi:end="3.1415927"
       sodipodi:arc-type="slice" />
    <path
       id="path457"
       style="fill:none;fill-rule:evenodd;stroke:#ff0000;stroke-width:0.899358;stroke-miterlimit:4;stroke-dasharray:none;stroke-opacity:1"
       d="m 117.78041,225.35667 c 29.79312,0 53.49567,23.71681 53.49567,53.52785 m 0,0.89962 c 0,29.81105 -23.70255,53.97766 -53.49567,53.97766 m -0.89909,0 c -29.793124,-10e-6 -53.495682,-24.16662 -53.495682,-53.97766 m 0,-0.89962 c 0,-29.81103 23.702558,-53.52785 53.495682,-53.52785"
       sodipodi:nodetypes="cccccccc" />
    <path
       id="rect1282"
       style="fill:none;fill-rule:evenodd;stroke:#ff0000;stroke-width:0.899358;stroke-miterlimit:4;stroke-dasharray:none;stroke-opacity:1"
       d="m 116.79141,274.81382 h 24.29679 v 8.68112 h -24.29679 m -0.89909,0 H 91.59373 l -0.482424,-8.68112 h 24.747224"
       sodipodi:nodetypes="cccccccc" />
    <path
       id="path457-2"
       style="fill:none;fill-rule:evenodd;stroke:#ff0000;stroke-width:0.899358;stroke-miterlimit:4;stroke-dasharray:none;stroke-opacity:1"
       d="m 232.14428,278.88452 c 0,-29.81104 24.1521,-53.97765 53.94523,-53.97765 m 0.89908,0 c 29.79313,0 53.94522,24.16662 53.94522,53.97765 m 0,0.89962 c 0,29.81104 -24.15209,53.97765 -53.94521,53.97766 m -0.89909,0 c -29.79313,0 -53.94523,-24.16661 -53.94523,-53.97766"
       sodipodi:nodetypes="cccccccc" />
    <path
       id="rect1282-8"
       style="fill:none;fill-rule:evenodd;stroke:#ff0000;stroke-width:0.899358;stroke-miterlimit:4;stroke-dasharray:none;stroke-opacity:1"
       d="m 285.9996,274.8362 24.2664,-0.0223 v 8.68112 h -24.2664 m -0.89909,0 h -24.32898 v -8.68112 h 24.32898"
       sodipodi:nodetypes="cccccccc" />
    <path
       id="path457-9"
       style="fill:none;fill-rule:evenodd;stroke:#ff0000;stroke-width:0.899358;stroke-miterlimit:4;stroke-dasharray:none;stroke-opacity:1"
       d="m 386.60744,278.88452 c 0,-29.81104 24.15209,-53.52785 53.94522,-53.52785 m 0.89909,0 c 29.79312,0 53.49565,23.71681 53.49565,53.52785 m 3e-5,0.89962 c 0,29.81105 -23.70256,53.52783 -53.49568,53.52783 m -0.89909,0 c -29.79313,0 -53.94522,-23.71678 -53.94522,-53.52783"
       sodipodi:nodetypes="cccccccc" />
    <path
       id="rect1282-2"
       style="fill:none;fill-rule:evenodd;stroke:#ff0000;stroke-width:0.899358;stroke-miterlimit:4;stroke-dasharray:none;stroke-opacity:1"
       d="m 439.56366,283.49494 h -24.29863 l -0.0318,-8.68112 h 24.33145 m 0.89909,0 h 24.29673 v 8.68112 h -24.29673"
       sodipodi:nodetypes="cccccccc" />
    <path
       id="path457-96"
       style="fill:none;fill-rule:evenodd;stroke:#ff0000;stroke-width:0.899358;stroke-miterlimit:4;stroke-dasharray:none;stroke-opacity:1"
       d="m 606.52413,224.90687 c 29.79313,0 53.53969,24.16661 53.53969,53.97765 m 0,0.89962 c 0,29.81105 -23.74656,53.52783 -53.53969,53.52783 m -0.89909,0 c -29.79312,0 -53.94522,-23.71678 -53.94522,-53.52783 m 0,-0.89962 c 0,-29.81104 24.1521,-53.97765 53.94522,-53.97765"
       sodipodi:nodetypes="cccccccc" />
    <path
       id="rect1282-7"
       style="fill:none;fill-rule:evenodd;stroke:#ff0000;stroke-width:0.899358;stroke-miterlimit:4;stroke-dasharray:none;stroke-opacity:1"
       d="m 605.53514,274.81382 h 24.34076 v 8.68112 h -24.34076 m -0.89909,0 h -24.2546 v -8.68112 h 24.2546"
       sodipodi:nodetypes="cccccccc" />
    <path
       style="fill:none;stroke:#ff0000;stroke-width:0.936829px;stroke-linecap:butt;stroke-linejoin:miter;stroke-opacity:1"
       d="m 305.24006,203.27093 h 24.30081 v -8.33152 l 26.56542,0.108 c 0,0 0.78055,-14.00215 -3.09865,-16.77468 -3.8792,-2.77251 -1.10949,-38.26023 4.9864,-56.28162 1.02281,-3.02376 1.45278,-6.49878 1.3619,-11.06704 m 0,-0.89963 C 358.90518,87.366148 345.64097,50.352877 328.34641,40.200639 321.2028,36.007202 314.41076,34.631757 307.93731,34.676803 m -0.89908,0 c -12.35837,0.086 -21.46645,5.35063 -22.1938,6.078415 -1.10834,1.109011 -3.60199,2.773927 -5.81867,3.605685 -2.21668,0.831756 -7.75889,0.831756 -10.25266,0 -2.49376,-0.831758 -3.60294,-2.218621 -6.09671,-4.436639 -2.49377,-2.218017 -19.11808,-7.484971 -27.43064,6.100378 -8.31256,13.585353 2.77043,61.825778 3.60169,69.866088 0.41562,4.02016 5.54183,7.97109 10.94511,10.95163 m 0.87292,0.45493 c 5.40329,2.98054 10.21073,4.53579 11.73471,4.67443 3.04794,0.27725 4.15601,3.88244 4.71018,6.65496 0.55418,2.77252 -1.10764,8.59395 -8.31187,20.5158 -7.20422,11.92183 -5.31747,35.48763 -5.31747,35.48763 l 26.56542,0.10798 v 8.53284 h 24.29453"
       id="path1603"
       sodipodi:nodetypes="ccccssccsccssssssccssscccc" />
  </g>
</svg>
