<?xml version="1.0" encoding="UTF-8" standalone="no"?>
<svg
   xmlns:dc="http://purl.org/dc/elements/1.1/"
   xmlns:cc="http://creativecommons.org/ns#"
   xmlns:rdf="http://www.w3.org/1999/02/22-rdf-syntax-ns#"
   xmlns:svg="http://www.w3.org/2000/svg"
   xmlns="http://www.w3.org/2000/svg"
   xmlns:sodipodi="http://sodipodi.sourceforge.net/DTD/sodipodi-0.dtd"
   xmlns:inkscape="http://www.inkscape.org/namespaces/inkscape"
   width="8in"
   height="4in"
   viewBox="0 0 720 360"
   version="1.1"
   id="svg1033"
   sodipodi:docname="characters-acrylic-3mm[cut].svg"
   inkscape:version="1.0.1 (3bc2e813f5, 2020-09-07)"
   inkscape:export-filename="C:\Users\Logan\arena-boardgame-art\characters\characters-acrylic-3mm[cut].png"
   inkscape:export-xdpi="300"
   inkscape:export-ydpi="300">
  <defs
     id="defs1027">
    <inkscape:path-effect
       effect="bspline"
       id="path-effect447"
       is_visible="true"
       lpeversion="1"
       weight="33.333333"
       steps="2"
       helper_size="0"
       apply_no_weight="true"
       apply_with_weight="true"
       only_selected="false" />
    <inkscape:path-effect
       effect="bspline"
       id="path-effect443"
       is_visible="true"
       lpeversion="1"
       weight="33.333333"
       steps="2"
       helper_size="0"
       apply_no_weight="true"
       apply_with_weight="true"
       only_selected="false" />
    <inkscape:path-effect
       effect="bspline"
       id="path-effect439"
       is_visible="true"
       lpeversion="1"
       weight="33.333333"
       steps="2"
       helper_size="0"
       apply_no_weight="true"
       apply_with_weight="true"
       only_selected="false" />
  </defs>
  <sodipodi:namedview
     id="base"
     pagecolor="#ffffff"
     bordercolor="#666666"
     borderopacity="1.0"
     inkscape:pageopacity="0.0"
     inkscape:pageshadow="2"
     inkscape:zoom="2.634649"
     inkscape:cx="450.98815"
     inkscape:cy="247.93115"
     inkscape:document-units="in"
     inkscape:current-layer="layer1"
     inkscape:document-rotation="0"
     showgrid="false"
     units="in"
     inkscape:window-width="1920"
     inkscape:window-height="1017"
     inkscape:window-x="-8"
     inkscape:window-y="-8"
     inkscape:window-maximized="1"
     objecttolerance="1"
     gridtolerance="1"
     guidetolerance="1"
     inkscape:object-paths="true"
     inkscape:snap-intersection-paths="true"
     inkscape:snap-others="false"
     scale-x="90" />
  <metadata
     id="metadata1030">
    <rdf:RDF>
      <cc:Work
         rdf:about="">
        <dc:format>image/svg+xml</dc:format>
        <dc:type
           rdf:resource="http://purl.org/dc/dcmitype/StillImage" />
        <dc:title />
      </cc:Work>
    </rdf:RDF>
  </metadata>
  <g
     inkscape:label="Layer 1"
     inkscape:groupmode="layer"
     id="layer1">
    <g
       id="Layer_3"
       transform="scale(1.2487289,1.2494795)"
       style="clip-rule:evenodd;fill-rule:evenodd">
      <path
         d="M 546.946,288 H 576 v -29.055 h -4.5 -9.885 c -8.088,0 -14.668,6.58 -14.668,14.67 V 288 Z"
         style="fill:#ed1d2e;fill-rule:nonzero"
         id="path607" />
      <path
         d="M 0,258.945 V 288 h 29.055 v -4.501 -9.886 c 0,-8.088 -6.58,-14.668 -14.67,-14.668 H 5.5 Z"
         style="fill:#ed1d2e;fill-rule:nonzero"
         id="path609" />
      <path
         d="M 29.055,0 H 0 v 29.055 h 14.387 c 8.088,0 14.668,-6.58 14.668,-14.67 V 5.5 Z"
         style="fill:#ed1d2e;fill-rule:nonzero"
         id="path611" />
      <path
         d="M 576,29.054 V 0 h -29.055 v 14.386 c 0,8.088 6.58,14.668 14.67,14.668 z"
         style="fill:#ed1d2e;fill-rule:nonzero"
         id="path613" />
      <path
         d="m 566.999,1 c 4.411,0 8,3.589 8,8 L 574.997,29.055 575,258.945 V 287 H 546.946 29.054 9 c -4.411,0 -8,-3.589 -8,-8 V 258.945 29.055 9 C 1,4.589 4.589,1 9,1 h 557.999 m 0,-1 H 546.943 29.054 9 C 4.029,0 0,4.029 0,9 v 270 c 0,4.971 4.029,9 9,9 H 576 V 258.945 L 575.997,29.054 575.999,9 c 0,-4.971 -4.029,-9 -9,-9 z"
         style="fill:#ed1f24;fill-rule:nonzero"
         id="path615" />
      <g
         id="g649">
        <path
           d="m 563.997,249.945 h 3 v -3"
           style="fill:none;stroke:#2fa3dc;stroke-width:1px"
           id="path617" />
        <path
           d="M 566.997,241.062 V 43.995"
           style="fill:none;stroke:#2fa3dc;stroke-width:1px;stroke-dasharray:5.88, 5.88"
           id="path619" />
        <path
           d="m 566.997,41.054 v -3 h -3"
           style="fill:none;stroke:#2fa3dc;stroke-width:1px"
           id="path621" />
        <path
           d="M 558.019,37.781 C 546.864,36.073 538.248,26.551 537.954,14.996"
           style="fill:none;stroke:#2fa3dc;stroke-width:1px;stroke-dasharray:5.99, 5.99"
           id="path623" />
        <path
           d="M 537.945,12 V 9 h -3"
           style="fill:none;stroke:#2fa3dc;stroke-width:1px"
           id="path625" />
        <path
           d="M 528.994,9 H 44.03"
           style="fill:none;stroke:#2fa3dc;stroke-width:1px;stroke-dasharray:5.95, 5.95"
           id="path627" />
        <path
           d="m 41.055,9 h -3 v 3"
           style="fill:none;stroke:#2fa3dc;stroke-width:1px"
           id="path629" />
        <path
           d="M 37.782,17.979 C 36.075,29.135 26.552,37.753 14.996,38.046"
           style="fill:none;stroke:#2fa3dc;stroke-width:1px;stroke-dasharray:5.99, 5.99"
           id="path631" />
        <path
           d="M 12,38.055 H 9 v 3"
           style="fill:none;stroke:#2fa3dc;stroke-width:1px"
           id="path633" />
        <path
           d="M 9,46.938 V 244.004"
           style="fill:none;stroke:#2fa3dc;stroke-width:1px;stroke-dasharray:5.88, 5.88"
           id="path635" />
        <path
           d="m 9,246.945 v 3 h 3"
           style="fill:none;stroke:#2fa3dc;stroke-width:1px"
           id="path637" />
        <path
           d="m 17.979,250.218 c 11.156,1.707 19.774,11.23 20.067,22.786"
           style="fill:none;stroke:#2fa3dc;stroke-width:1px;stroke-dasharray:5.99, 5.99"
           id="path639" />
        <path
           d="m 38.055,276 v 3 h 3"
           style="fill:none;stroke:#2fa3dc;stroke-width:1px"
           id="path641" />
        <path
           d="M 47.005,279 H 531.971"
           style="fill:none;stroke:#2fa3dc;stroke-width:1px;stroke-dasharray:5.95, 5.95"
           id="path643" />
        <path
           d="m 534.946,279 h 3 v -3"
           style="fill:none;stroke:#2fa3dc;stroke-width:1px"
           id="path645" />
        <path
           d="m 538.219,270.021 c 1.706,-11.156 11.228,-19.773 22.782,-20.068"
           style="fill:none;stroke:#2fa3dc;stroke-width:1px;stroke-dasharray:5.99, 5.99"
           id="path647" />
      </g>
    </g>
    <g
       id="Layer_4"
       transform="scale(1.2487289,1.2494795)"
       style="clip-rule:evenodd;fill-rule:evenodd">
      <g
         id="g658">
        <path
           d="m 0,279 v 9 h 9 c -4.971,0 -9,-4.029 -9,-9 z"
           style="fill:#808080;fill-rule:nonzero"
           id="path652" />
        <path
           d="M 9,0 H 0 V 9 C 0,4.029 4.029,0 9,0 Z"
           style="fill:#808080;fill-rule:nonzero"
           id="path654" />
        <path
           d="m 566.999,0 c 4.971,0 9,4.029 9,9 L 575.997,29.055 576,258.945 V 0 Z"
           style="fill:#808080;fill-rule:nonzero"
           id="path656" />
      </g>
      <path
         d="m 14.387,279.283 c -3.126,0 -5.67,-2.541 -5.67,-5.668 0,-3.127 2.543,-5.67 5.67,-5.67 3.125,0 5.668,2.543 5.668,5.67 0,3.127 -2.543,5.668 -5.668,5.668 z"
         style="fill:#808080;fill-rule:nonzero;stroke:#ec2130;stroke-width:1px;stroke-miterlimit:10"
         id="path660" />
      <path
         d="m 14.387,20.056 c -3.126,0 -5.67,-2.543 -5.67,-5.669 0,-3.126 2.544,-5.669 5.67,-5.669 3.125,0 5.668,2.543 5.668,5.669 0,3.126 -2.543,5.669 -5.668,5.669 z"
         style="fill:#808080;fill-rule:nonzero;stroke:#ec2130;stroke-width:1px;stroke-miterlimit:10"
         id="path662" />
      <path
         d="m 561.616,279.283 c -3.127,0 -5.67,-2.541 -5.67,-5.668 0,-3.127 2.543,-5.67 5.67,-5.67 3.126,0 5.667,2.543 5.667,5.67 0,3.127 -2.541,5.668 -5.667,5.668 z"
         style="fill:#808080;fill-rule:nonzero;stroke:#ec2130;stroke-width:1px;stroke-miterlimit:10"
         id="path664" />
      <path
         d="m 561.616,20.056 c -3.127,0 -5.67,-2.543 -5.67,-5.669 0,-3.126 2.543,-5.669 5.67,-5.669 3.126,0 5.667,2.543 5.667,5.669 0,3.126 -2.541,5.669 -5.667,5.669 z"
         style="fill:#808080;fill-rule:nonzero;stroke:#ec2130;stroke-width:1px;stroke-miterlimit:10"
         id="path666" />
    </g>
    <text
       xml:space="preserve"
       style="font-style:normal;font-weight:normal;font-size:10.5833px;line-height:1.25;font-family:sans-serif;fill:#000000;fill-opacity:1;stroke:none;stroke-width:0.264583"
       x="24.11183"
       y="29.995117"
       id="text529"><tspan
         sodipodi:role="line"
         id="tspan527"
         x="24.11183"
         y="29.995117"
         style="stroke-width:0.264583" /></text>
    <path
       style="fill:#003380;fill-rule:evenodd;stroke:none;stroke-width:0.127;stroke-opacity:1"
       id="path1419"
       sodipodi:type="arc"
       sodipodi:cx="52.878769"
       sodipodi:cy="16.177691"
       sodipodi:rx="3.7599551e-15"
       sodipodi:ry="0.32866639"
       sodipodi:start="0"
       sodipodi:end="3.1415927"
       sodipodi:arc-type="slice" />
    <path
       id="path57"
       style="fill:none;stroke:#ff0000;stroke-width:0.893328;stroke-miterlimit:4;stroke-dasharray:none;stroke-opacity:1"
       d="m 117.45,227.34352 21.99439,-0.096 31.71719,31.44089 0.10047,21.75162 m -2e-5,0.90001 0.10049,22.00458 -31.43299,31.71252 -22.47952,0.096 m -0.90002,2e-5 -21.274375,0.096 L 63.55843,303.8083 63.457954,281.33999 m -2e-6,-0.9 -0.10047,-21.28789 31.432989,-31.71253 21.759529,-0.096"
       sodipodi:nodetypes="cccccccccccccccc" />
    <path
       id="path57-4"
       style="fill:none;stroke:#ff0000;stroke-width:0.893329;stroke-miterlimit:4;stroke-dasharray:none;stroke-opacity:1"
       d="m 286.20005,227.34347 21.99439,-0.096 31.71719,31.44089 0.10047,21.75162 m -2e-5,0.90001 0.10048,22.00458 -31.43298,31.71252 -22.47952,0.096 m -0.90001,10e-6 -21.27438,0.096 -31.71719,-31.44082 -0.10047,-22.46831 m -1e-5,-0.9 -0.10047,-21.28789 31.43299,-31.71252 21.75953,-0.096"
       sodipodi:nodetypes="cccccccccccccccc" />
    <path
       id="path57-1"
       style="fill:none;stroke:#ff0000;stroke-width:0.893329;stroke-miterlimit:4;stroke-dasharray:none;stroke-opacity:1"
       d="m 440.73004,227.34347 21.9944,-0.096 31.71718,31.44089 0.10047,21.75162 m -2e-5,0.90001 0.10048,22.00458 -31.43298,31.71252 -22.47952,0.096 m -0.90001,10e-6 -21.27438,0.096 -31.71719,-31.44082 -0.10047,-22.46831 m 0,-0.9 -0.10047,-21.28789 31.43298,-31.71252 21.75953,-0.096"
       sodipodi:nodetypes="cccccccccccccccc" />
    <path
       id="path57-6"
       style="fill:none;stroke:#ff0000;stroke-width:0.893329;stroke-miterlimit:4;stroke-dasharray:none;stroke-opacity:1"
       d="m 605.79004,227.34347 21.9944,-0.096 31.71718,31.4409 0.10047,21.75161 m -2e-5,0.90001 0.10048,22.00458 -31.43298,31.71252 -22.47952,0.096 m -0.90001,10e-6 -21.27438,0.096 -31.71719,-31.44082 -0.10047,-22.4683 m 0,-0.90001 -0.10047,-21.28789 31.43299,-31.71252 21.75953,-0.096"
       sodipodi:nodetypes="cccccccccccccccc" />
    <path
       id="rect1282-8-5-5"
       style="fill:none;fill-rule:nonzero;stroke:#ff0000;stroke-width:0.961134;stroke-miterlimit:4;stroke-dasharray:none;stroke-opacity:1"
       d="m 576.09127,131.01035 c 16.38035,-3.38193 25.07757,7.91085 25.07757,7.91085 0,0 4.60726,2.86221 -5.37456,14.56888 -9.98175,11.70665 -11.41045,51.53915 -11.41045,51.53915 h 28.16832 v 9.35049 h 25.79197 m 0.95333,0 h 25.73552 v -9.35049 h 28.16835 c 0,0 0.36337,-0.81114 2.66688,-35.15064 0.56904,-8.48288 0.70079,-18.15999 0.35662,-28.98446 m 0,-0.96901 C 695.17582,106.9311 689.70537,68.16477 678.7205,50.731139 669.60254,36.260422 649.26464,33.17082 634.43544,33.015852 m -0.95333,0 c -8.89751,-0.09298 -15.16387,0.871434 -15.93171,1.066542 -2.04751,0.520297 -5.11928,1.300699 -7.67872,12.487052 -2.55942,11.186353 -8.95886,15.868059 -8.95886,15.868059 0,0 -5.37446,4.422512 -17.40375,0 -12.02928,-4.422513 -21.24227,-2.341166 -27.8968,0.520458 -6.65456,2.861627 -13.82229,9.626709 -16.89362,22.894243 -3.07133,13.267537 -1.53527,22.370964 1.28011,32.256584 2.81536,9.88561 18.75884,16.47728 35.13918,13.09535"
       sodipodi:nodetypes="ccsccccccccsccsccsscssssc" />
    <path
       id="rect1282-8-5-0"
       style="fill:none;fill-rule:nonzero;stroke:#ff0000;stroke-width:0.95085;stroke-miterlimit:4;stroke-dasharray:none;stroke-opacity:1"
       d="m 222.95258,128.29714 c -0.0155,-6.31605 -7.54004,-11.39266 -18.20066,-18.36388 -11.51224,-7.52815 -18.83832,-40.986086 -18.83832,-40.986086 0,0 -2.3546,-20.354376 -18.31476,-30.949514 -5.98506,-3.973177 -14.09445,-5.200873 -22.66424,-5.125724 m -0.90931,0 c -14.283,0.12525 -28.13348,3.87076 -30.58638,4.567809 -3.92463,1.115274 -6.27882,4.183474 -6.27882,24.258472 0,20.075003 -2.61586,23.698586 -2.61586,23.698586 0,0 -13.082483,18.681267 -43.694603,20.632997 -30.612115,1.95175 -29.826898,6.69274 -31.135108,8.08684 -0.683976,0.72887 -0.867304,2.06631 -0.774345,4.49052 m 0,0.969 c 0.08483,2.21247 0.399806,4.43768 0.774345,7.36465 0.784927,6.134 30.349095,12.54816 34.535366,12.54816 4.186272,0 29.828471,1.95027 32.44489,5.01729 2.616423,3.06702 3.662145,11.15433 3.923805,15.05781 0.26164,3.90347 -6.017421,21.46742 -8.633849,26.48618 -2.616418,5.01874 -2.197766,19.51916 -2.197766,19.51916 l 26.867215,0.0848 v 9.59497 h 24.55229 m 0.90931,0 h 24.59506 v -9.43527 l 26.86722,0.0848 c 5.04751,-24.20667 1.23261,-37.69145 0.44768,-42.98905 -0.78493,-5.29756 1.30661,-13.66227 2.35319,-16.17166 1.04657,-2.50936 15.43779,-6.69105 16.74598,-6.69105 1.3082,0 8.37271,-2.79006 9.68094,-9.76055 0.0968,-0.51564 0.14342,-0.51559 0.14221,-1.02016"
       sodipodi:nodetypes="cscsccsscssccsssssccccccccssssc" />
    <path
       id="rect1282-8-5"
       style="fill:none;fill-rule:nonzero;stroke:#ff0000;stroke-width:0.960525;stroke-miterlimit:4;stroke-dasharray:none;stroke-opacity:1"
       d="m 468.0581,36.090715 c -8.89215,0.0369 -14.70575,3.16669 -14.70575,3.16669 0,0 -7.04182,4.180384 -10.563,3.881748 -3.52112,-0.298632 -8.21643,-2.687793 -10.27047,-8.063156 -2.05401,-5.375358 -7.04206,-11.347807 -12.32382,-13.139597 -1.32044,-0.447946 -2.56619,-0.634403 -3.69405,-0.6624 -3.38361,-0.08399 -5.69507,1.259746 -5.69507,1.259746 0,0 -9.68307,3.882759 -13.49767,32.849974 -2.67758,20.332858 0.0864,43.297064 2.29225,57.31254 m 0.19659,0.969 c 0.93671,5.95167 1.73731,9.69594 1.91224,11.2982 0.58686,5.37534 10.27029,17.32151 15.84544,20.90506 5.5752,3.58358 6.16191,10.15288 6.16191,10.15288 0,0 2.34665,6.86993 -5.8694,17.62065 -8.21604,10.75073 -7.09753,33.15753 -7.09753,33.15753 h 28.13439 v 9.3505 h 25.74632 m 0.95211,0 h 25.71555 v -9.3505 h 28.13245 c 3.86981,-9.54629 -0.9356,-36.14425 -0.9356,-36.14425 0,0 -6.45664,-26.27997 -1.46831,-39.12109 1.58991,-4.09286 2.01737,-9.91474 1.86185,-16.60927 m 0,-0.96899 c -0.33242,-14.309307 -3.32825,-29.903693 -3.32825,-29.903693 0,0 -10.26902,-32.253097 -27.87481,-42.705165 -6.83503,-4.057762 -13.03242,-5.279834 -18.67525,-5.256407"
       sodipodi:nodetypes="ccsssscsccsscscccccccccscccsc" />
    <path
       style="fill:none;stroke:#ff0000;stroke-width:1.02143px;stroke-linecap:butt;stroke-linejoin:miter;stroke-opacity:1"
       d="m 319.26324,214.00516 h 26.81993 v -8.97397 l 29.31928,0.11633 c 0,0 0.86146,-15.08185 -3.41986,-18.06819 -4.28135,-2.9863 -1.22452,-41.2105 5.50329,-60.62152 1.12885,-3.25693 1.60338,-6.99991 1.50309,-11.92043 m 0,-0.969 c -0.4975,-24.405504 -15.13673,-64.272891 -34.22409,-75.207975 -7.88415,-4.516797 -15.38027,-5.998304 -22.52477,-5.949784 m -0.99229,0 c -13.63948,0.09263 -23.69173,5.76322 -24.49449,6.547126 -1.22323,1.194528 -3.97537,2.987826 -6.42184,3.88372 -2.44647,0.895895 -8.5632,0.895895 -11.3155,0 -2.75227,-0.895894 -3.97642,-2.389699 -6.72872,-4.77875 -2.75228,-2.389049 -21.09992,-8.062141 -30.27419,6.570782 -9.17426,14.632929 3.05762,66.593211 3.97505,75.253521 0.45871,4.33016 6.11633,8.58574 12.07973,11.79611 m 0.96341,0.49001 c 5.96342,3.21037 11.26921,4.88554 12.95116,5.03488 3.36391,0.29863 4.58684,4.18181 5.19845,7.16813 0.61165,2.98631 -1.22245,9.25664 -9.1735,22.09778 -7.95104,12.84114 -5.86869,38.22411 -5.86869,38.22411 l 29.31928,0.1163 v 9.19082 h 26.81299"
       id="path1603"
       sodipodi:nodetypes="ccccssccsccssssssccssscccc" />
    <path
       id="rect1282-8-56-2"
       style="fill:none;fill-rule:evenodd;stroke:#ff0000;stroke-width:0.957917;stroke-miterlimit:4;stroke-dasharray:none;stroke-opacity:1"
       d="m 286.0113,276.55526 26.79624,-0.0229 v 8.9187 H 286.0113 m -0.9928,0 h -26.86535 v -8.9187 h 26.86535"
       sodipodi:nodetypes="cccccccc" />
    <path
       id="rect1282-8-56"
       style="fill:none;fill-rule:evenodd;stroke:#ff0000;stroke-width:0.957917;stroke-miterlimit:4;stroke-dasharray:none;stroke-opacity:1"
       d="m 440.56556,276.55518 26.79624,-0.0229 v 8.91869 h -26.79624 m -0.9928,0 h -26.86535 v -8.91869 h 26.86535"
       sodipodi:nodetypes="cccccccc" />
    <path
       id="rect1282-8-56-9"
       style="fill:none;fill-rule:evenodd;stroke:#ff0000;stroke-width:0.957917;stroke-miterlimit:4;stroke-dasharray:none;stroke-opacity:1"
       d="m 605.63304,276.55518 26.79623,-0.0229 v 8.91869 h -26.79623 m -0.99281,0 h -26.86535 v -8.91869 h 26.86535"
       sodipodi:nodetypes="cccccccc" />
    <path
       id="rect1282-8-56-6"
       style="fill:none;fill-rule:evenodd;stroke:#ff0000;stroke-width:0.957917;stroke-miterlimit:4;stroke-dasharray:none;stroke-opacity:1"
       d="m 116.80711,276.53227 26.79624,-0.0229 v 8.91869 h -26.79624 m -0.99281,0 H 88.948958 v -8.91869 H 115.8143"
       sodipodi:nodetypes="cccccccc" />
  </g>
</svg>
